<svg width="24" height="22" viewBox="0 0 24 22" fill="none" xmlns="http://www.w3.org/2000/svg">
<path d="M11.0489 0.926561C11.3483 0.00525022 12.6517 0.00525165 12.9511 0.926562L14.9187 6.98229C15.0526 7.39431 15.4365 7.67327 15.8697 7.67327H22.2371C23.2058 7.67327 23.6086 8.91289 22.8249 9.48229L17.6736 13.2249C17.3231 13.4796 17.1764 13.9309 17.3103 14.343L19.2779 20.3987C19.5773 21.32 18.5228 22.0861 17.7391 21.5167L12.5878 17.7741C12.2373 17.5194 11.7627 17.5194 11.4122 17.7741L6.2609 21.5167C5.47719 22.0861 4.42271 21.32 4.72206 20.3987L6.68969 14.343C6.82356 13.9309 6.6769 13.4796 6.32642 13.2249L1.17511 9.48229C0.391392 8.91289 0.794168 7.67327 1.76289 7.67327H8.13026C8.56349 7.67327 8.94744 7.39431 9.08132 6.98229L11.0489 0.926561Z" fill="#FFB800"/>
</svg>
